{
    "asset" : {
        "generator" : "Khronos glTF Blender I/O v1.4.40",
        "version" : "2.0"
    },
    "scene" : 0,
    "scenes" : [
        {
            "name" : "Scene",
            "nodes" : [
                0,
                1,
                2
            ]
        }
    ],
    "nodes" : [
        {
            "name" : "Light",
            "rotation" : [
                0.16907575726509094,
                0.7558803558349609,
                -0.27217137813568115,
                0.570947527885437
            ],
            "translation" : [
                4.076245307922363,
                5.903861999511719,
                -1.0054539442062378
            ]
        },
        {
            "name" : "Camera",
            "rotation" : [
                0.483536034822464,
                0.33687159419059753,
                -0.20870360732078552,
                0.7804827094078064
            ],
            "translation" : [
                7.358891487121582,
                4.958309173583984,
                6.925790786743164
            ]
        },
        {
            "mesh" : 0,
            "name" : "typeMesh4",
            "rotation" : [
                0.7125111818313599,
                -0.08153818547725677,
                -0.1033143624663353,
                0.6892064213752747
            ],
            "scale" : [
                0.1844700276851654,
                0.1844700425863266,
                0.1844700276851654
            ],
            "translation" : [
                -0.7939701080322266,
                1.1142902374267578,
                1.150048017501831
            ]
        }
    ],
    "materials" : [
        {
            "doubleSided" : true,
            "name" : "orange",
            "pbrMetallicRoughness" : {
                "baseColorFactor" : [
                    1,
                    0.2622505724430084,
                    0,
                    1
                ],
                "metallicFactor" : 0,
                "roughnessFactor" : 0.5527864098548889
            }
        }
    ],
    "meshes" : [
        {
            "name" : "Mesh.014",
            "primitives" : [
                {
                    "attributes" : {
                        "POSITION" : 0,
                        "NORMAL" : 1,
                        "TEXCOORD_0" : 2
                    },
                    "indices" : 3,
                    "material" : 0
                }
            ]
        }
    ],
    "accessors" : [
        {
            "bufferView" : 0,
            "componentType" : 5126,
            "count" : 1270,
            "max" : [
                11.885643005371094,
                2.5,
                2.9000003337860107
            ],
            "min" : [
                -0.38401031494140625,
                0,
                -14.543590545654297
            ],
            "type" : "VEC3"
        },
        {
            "bufferView" : 1,
            "componentType" : 5126,
            "count" : 1270,
            "type" : "VEC3"
        },
        {
            "bufferView" : 2,
            "componentType" : 5126,
            "count" : 1270,
            "type" : "VEC2"
        },
        {
            "bufferView" : 3,
            "componentType" : 5123,
            "count" : 4632,
            "type" : "SCALAR"
        }
    ],
    "bufferViews" : [
        {
            "buffer" : 0,
            "byteLength" : 15240,
            "byteOffset" : 0
        },
        {
            "buffer" : 0,
            "byteLength" : 15240,
            "byteOffset" : 15240
        },
        {
            "buffer" : 0,
            "byteLength" : 10160,
            "byteOffset" : 30480
        },
        {
            "buffer" : 0,
            "byteLength" : 9264,
            "byteOffset" : 40640
        }
    ],
    "buffers" : [
        {
            "byteLength" : 49904,
            "uri" : "data:application/octet-stream;base64,"
        }
    ]
}
