{
    "asset" : {
        "generator" : "Khronos glTF Blender I/O v1.4.40",
        "version" : "2.0"
    },
    "scene" : 0,
    "scenes" : [
        {
            "name" : "Scene",
            "nodes" : [
                0,
                1,
                2,
                3,
                6,
                7,
                8
            ]
        }
    ],
    "nodes" : [
        {
            "name" : "Light.001",
            "rotation" : [
                0.16907575726509094,
                0.7558803558349609,
                -0.27217137813568115,
                0.570947527885437
            ],
            "translation" : [
                4.076245307922363,
                5.903861999511719,
                -1.0054539442062378
            ]
        },
        {
            "name" : "Camera.001",
            "rotation" : [
                0.483536034822464,
                0.33687159419059753,
                -0.20870360732078552,
                0.7804827094078064
            ],
            "translation" : [
                7.358891487121582,
                4.958309173583984,
                6.925790786743164
            ]
        },
        {
            "name" : "Light.002",
            "rotation" : [
                0.16907575726509094,
                0.7558803558349609,
                -0.27217137813568115,
                0.570947527885437
            ],
            "translation" : [
                4.076245307922363,
                5.903861999511719,
                -1.0054539442062378
            ]
        },
        {
            "name" : "Camera.002",
            "rotation" : [
                0.483536034822464,
                0.33687159419059753,
                -0.20870360732078552,
                0.7804827094078064
            ],
            "translation" : [
                7.358891487121582,
                4.958309173583984,
                6.925790786743164
            ]
        },
        {
            "mesh" : 0,
            "name" : "polySurface20",
            "scale" : [
                0.622940719127655,
                0.622940719127655,
                0.622940719127655
            ],
            "translation" : [
                -43.14322280883789,
                -72.23712158203125,
                9.379669189453125
            ]
        },
        {
            "mesh" : 1,
            "name" : "pTorus1",
            "rotation" : [
                0.7071068286895752,
                0,
                0,
                0.7071067094802856
            ],
            "translation" : [
                8.278987884521484,
                118.83482360839844,
                -5.56278133392334
            ]
        },
        {
            "children" : [
                4,
                5
            ],
            "name" : "bitcoin_lightning",
            "rotation" : [
                0.7055686116218567,
                0.04661644622683525,
                -0.04661645367741585,
                0.7055684924125671
            ],
            "scale" : [
                0.02487187460064888,
                0.02487187460064888,
                0.02487187646329403
            ],
            "translation" : [
                -0.5456103086471558,
                1.6802747249603271,
                -3.1414170265197754
            ]
        },
        {
            "name" : "Light",
            "rotation" : [
                0.16907575726509094,
                0.7558803558349609,
                -0.27217137813568115,
                0.570947527885437
            ],
            "translation" : [
                4.076245307922363,
                5.903861999511719,
                -1.0054539442062378
            ]
        },
        {
            "name" : "Camera",
            "rotation" : [
                0.483536034822464,
                0.33687159419059753,
                -0.20870360732078552,
                0.7804827094078064
            ],
            "translation" : [
                7.358891487121582,
                4.958309173583984,
                6.925790786743164
            ]
        }
    ],
    "materials" : [
        {
            "doubleSided" : true,
            "name" : "aiStandardSurface10.001",
            "pbrMetallicRoughness" : {
                "baseColorTexture" : {
                    "index" : 0,
                    "texCoord" : 0
                },
                "metallicFactor" : 0,
                "roughnessFactor" : 0.5527864098548889
            }
        },
        {
            "doubleSided" : true,
            "name" : "aiStandardSurface11.001",
            "pbrMetallicRoughness" : {
                "baseColorTexture" : {
                    "index" : 1,
                    "texCoord" : 0
                },
                "metallicFactor" : 0,
                "roughnessFactor" : 0.5527864098548889
            }
        }
    ],
    "meshes" : [
        {
            "name" : "Mesh.005",
            "primitives" : [
                {
                    "attributes" : {
                        "POSITION" : 0,
                        "NORMAL" : 1,
                        "TEXCOORD_0" : 2
                    },
                    "indices" : 3,
                    "material" : 0
                }
            ]
        },
        {
            "name" : "Mesh.006",
            "primitives" : [
                {
                    "attributes" : {
                        "POSITION" : 4,
                        "NORMAL" : 5,
                        "TEXCOORD_0" : 6
                    },
                    "indices" : 7,
                    "material" : 1
                }
            ]
        }
    ],
    "textures" : [
        {
            "sampler" : 0,
            "source" : 0
        },
        {
            "sampler" : 0,
            "source" : 1
        }
    ],
    "images" : [
        {
            "mimeType" : "image/jpeg",
            "name" : "ddd",
            "uri" : "ddd.jpg"
        },
        {
            "mimeType" : "image/jpeg",
            "name" : "rrrrr",
            "uri" : "rrrrr.jpg"
        }
    ],
    "accessors" : [
        {
            "bufferView" : 0,
            "componentType" : 5126,
            "count" : 70,
            "max" : [
                121.13552856445312,
                317.1372375488281,
                69.6270751953125
            ],
            "min" : [
                24.3232421875,
                296.7892150878906,
                -115.4755859375
            ],
            "type" : "VEC3"
        },
        {
            "bufferView" : 1,
            "componentType" : 5126,
            "count" : 70,
            "type" : "VEC3"
        },
        {
            "bufferView" : 2,
            "componentType" : 5126,
            "count" : 70,
            "type" : "VEC2"
        },
        {
            "bufferView" : 3,
            "componentType" : 5123,
            "count" : 150,
            "type" : "SCALAR"
        },
        {
            "bufferView" : 4,
            "componentType" : 5126,
            "count" : 117120,
            "max" : [
                71.51251983642578,
                71.73686218261719,
                2.0890393257141113
            ],
            "min" : [
                -71.44464111328125,
                -71.73683166503906,
                -2.089036226272583
            ],
            "type" : "VEC3"
        },
        {
            "bufferView" : 5,
            "componentType" : 5126,
            "count" : 117120,
            "type" : "VEC3"
        },
        {
            "bufferView" : 6,
            "componentType" : 5126,
            "count" : 117120,
            "type" : "VEC2"
        },
        {
            "bufferView" : 7,
            "componentType" : 5125,
            "count" : 553536,
            "type" : "SCALAR"
        }
    ],
    "bufferViews" : [
        {
            "buffer" : 0,
            "byteLength" : 840,
            "byteOffset" : 0
        },
        {
            "buffer" : 0,
            "byteLength" : 840,
            "byteOffset" : 840
        },
        {
            "buffer" : 0,
            "byteLength" : 560,
            "byteOffset" : 1680
        },
        {
            "buffer" : 0,
            "byteLength" : 300,
            "byteOffset" : 2240
        },
        {
            "buffer" : 0,
            "byteLength" : 1405440,
            "byteOffset" : 2540
        },
        {
            "buffer" : 0,
            "byteLength" : 1405440,
            "byteOffset" : 1407980
        },
        {
            "buffer" : 0,
            "byteLength" : 936960,
            "byteOffset" : 2813420
        },
        {
            "buffer" : 0,
            "byteLength" : 2214144,
            "byteOffset" : 3750380
        }
    ],
    "samplers" : [
        {
            "magFilter" : 9729,
            "minFilter" : 9986
        }
    ],
    "buffers" : [
        {
            "byteLength" : 5964524,
            "uri" : "untitled.bin"
        }
    ]
}
