{
    "asset" : {
        "generator" : "Khronos glTF Blender I/O v1.4.40",
        "version" : "2.0"
    },
    "scene" : 0,
    "scenes" : [
        {
            "name" : "Scene",
            "nodes" : [
                0,
                1,
                5
            ]
        }
    ],
    "nodes" : [
        {
            "name" : "Light",
            "rotation" : [
                0.16907575726509094,
                0.7558803558349609,
                -0.27217137813568115,
                0.570947527885437
            ],
            "translation" : [
                4.076245307922363,
                5.903861999511719,
                -1.0054539442062378
            ]
        },
        {
            "name" : "Camera",
            "rotation" : [
                0.483536034822464,
                0.33687159419059753,
                -0.20870360732078552,
                0.7804827094078064
            ],
            "translation" : [
                7.358891487121582,
                4.958309173583984,
                6.925790786743164
            ]
        },
        {
            "mesh" : 0,
            "name" : "pCube1",
            "scale" : [
                4.027271747589111,
                4.027271747589111,
                4.027271747589111
            ],
            "translation" : [
                -232.16653442382812,
                133.6349639892578,
                -28.260658264160156
            ]
        },
        {
            "mesh" : 1,
            "name" : "pCube6",
            "rotation" : [
                -1,
                0,
                0,
                7.549790126404332e-08
            ],
            "scale" : [
                4.027271747589111,
                4.027271747589111,
                4.027271747589111
            ],
            "translation" : [
                -232.16653442382812,
                133.6349639892578,
                6.628460884094238
            ]
        },
        {
            "children" : [
                2,
                3
            ],
            "name" : "group2",
            "scale" : [
                1.94437837600708,
                1.94437837600708,
                1.94437837600708
            ],
            "translation" : [
                1100.1982421875,
                -126.20198059082031,
                -41.49695587158203
            ]
        },
        {
            "children" : [
                4
            ],
            "name" : "group4",
            "rotation" : [
                0.7071068286895752,
                0,
                0,
                0.7071067094802856
            ],
            "scale" : [
                0.009999999776482582,
                0.009999999776482582,
                0.009999999776482582
            ],
            "translation" : [
                -6.324509143829346,
                0.7458146214485168,
                0
            ]
        }
    ],
    "materials" : [
        {
            "doubleSided" : true,
            "name" : "blanc",
            "pbrMetallicRoughness" : {
                "metallicFactor" : 0,
                "roughnessFactor" : 0.5527864098548889
            }
        }
    ],
    "meshes" : [
        {
            "name" : "Mesh.028",
            "primitives" : [
                {
                    "attributes" : {
                        "POSITION" : 0,
                        "NORMAL" : 1,
                        "TEXCOORD_0" : 2
                    },
                    "indices" : 3,
                    "material" : 0
                }
            ]
        },
        {
            "name" : "Mesh.029",
            "primitives" : [
                {
                    "attributes" : {
                        "POSITION" : 4,
                        "NORMAL" : 5,
                        "TEXCOORD_0" : 6
                    },
                    "indices" : 3,
                    "material" : 0
                }
            ]
        }
    ],
    "accessors" : [
        {
            "bufferView" : 0,
            "componentType" : 5126,
            "count" : 312,
            "max" : [
                16.946712493896484,
                2.8730101585388184,
                2.0357308387756348
            ],
            "min" : [
                -16.85386848449707,
                -2.873012065887451,
                -12.944131851196289
            ],
            "type" : "VEC3"
        },
        {
            "bufferView" : 1,
            "componentType" : 5126,
            "count" : 312,
            "type" : "VEC3"
        },
        {
            "bufferView" : 2,
            "componentType" : 5126,
            "count" : 312,
            "type" : "VEC2"
        },
        {
            "bufferView" : 3,
            "componentType" : 5123,
            "count" : 1116,
            "type" : "SCALAR"
        },
        {
            "bufferView" : 4,
            "componentType" : 5126,
            "count" : 312,
            "max" : [
                16.946712493896484,
                2.8730101585388184,
                2.0357308387756348
            ],
            "min" : [
                -16.85386848449707,
                -2.873012065887451,
                -12.944131851196289
            ],
            "type" : "VEC3"
        },
        {
            "bufferView" : 5,
            "componentType" : 5126,
            "count" : 312,
            "type" : "VEC3"
        },
        {
            "bufferView" : 6,
            "componentType" : 5126,
            "count" : 312,
            "type" : "VEC2"
        }
    ],
    "bufferViews" : [
        {
            "buffer" : 0,
            "byteLength" : 3744,
            "byteOffset" : 0
        },
        {
            "buffer" : 0,
            "byteLength" : 3744,
            "byteOffset" : 3744
        },
        {
            "buffer" : 0,
            "byteLength" : 2496,
            "byteOffset" : 7488
        },
        {
            "buffer" : 0,
            "byteLength" : 2232,
            "byteOffset" : 9984
        },
        {
            "buffer" : 0,
            "byteLength" : 3744,
            "byteOffset" : 12216
        },
        {
            "buffer" : 0,
            "byteLength" : 3744,
            "byteOffset" : 15960
        },
        {
            "buffer" : 0,
            "byteLength" : 2496,
            "byteOffset" : 19704
        }
    ],
    "buffers" : [
        {
            "byteLength" : 22200,
            "uri" : "data:application/octet-stream;base64,"
        }
    ]
}
